<svg id="molecule" enable-background="new 0 0 300 300" height="512" viewBox="0 0 300 300" width="512" xmlns="http://www.w3.org/2000/svg"><g><circle cx="138" cy="144" fill="#e4eac7" r="92"/><circle cx="86" cy="220" fill="#4c241d" r="4"/><path d="m63.656 197.656c-1.023 0-2.047-.391-2.828-1.172l-11.312-11.312c-1.562-1.562-1.562-4.094 0-5.656s4.094-1.562 5.656 0l11.312 11.312c1.562 1.562 1.562 4.094 0 5.656-.781.782-1.804 1.172-2.828 1.172z" fill="#4c241d"/><path d="m52.344 197.656c-1.023 0-2.047-.391-2.828-1.172-1.562-1.562-1.562-4.094 0-5.656l11.312-11.312c1.562-1.562 4.094-1.562 5.656 0s1.562 4.094 0 5.656l-11.312 11.312c-.781.782-1.805 1.172-2.828 1.172z" fill="#4c241d"/><g><path d="m149.979 112.061c0-8.837-16-28-16-28s-16 19.163-16 28 7.163 16 16 16 16-7.164 16-16z" fill="#bf7e68"/><path d="m133.98 132.061c-11.027 0-20-8.973-20-20 0-9.791 14.102-27.178 16.93-30.564 1.523-1.82 4.617-1.82 6.141 0 2.828 3.387 16.93 20.773 16.93 30.564-.001 11.027-8.973 20-20.001 20zm0-41.588c-5.723 7.471-12 17.295-12 21.588 0 6.617 5.383 12 12 12s12-5.383 12-12c0-4.293-6.277-14.118-12-21.588z" fill="#4c241d"/></g><g><path d="m201.979 200.061c0-8.837-16-28-16-28s-16 19.163-16 28 7.163 16 16 16c8.836 0 16-7.164 16-16z" fill="#bf7e68"/><path d="m185.98 220.061c-11.027 0-20-8.973-20-20 0-9.791 14.102-27.178 16.93-30.564 1.523-1.82 4.617-1.82 6.141 0 2.828 3.387 16.93 20.773 16.93 30.564-.001 11.027-8.973 20-20.001 20zm0-41.588c-5.723 7.471-12 17.295-12 21.588 0 6.617 5.383 12 12 12s12-5.383 12-12c0-4.293-6.277-14.118-12-21.588z" fill="#4c241d"/></g><g fill="#4c241d"><path d="m247.656 117.656c-1.023 0-2.047-.391-2.828-1.172l-11.312-11.312c-1.562-1.562-1.562-4.094 0-5.656s4.094-1.562 5.656 0l11.312 11.312c1.562 1.562 1.562 4.094 0 5.656-.781.782-1.804 1.172-2.828 1.172z"/><path d="m236.344 117.656c-1.023 0-2.047-.391-2.828-1.172-1.562-1.562-1.562-4.094 0-5.656l11.312-11.312c1.562-1.562 4.094-1.562 5.656 0s1.562 4.094 0 5.656l-11.312 11.312c-.781.782-1.805 1.172-2.828 1.172z"/><path d="m234.286 68.16c0 2.362-1.914 4.277-4.276 4.277s-4.276-1.915-4.276-4.277 1.914-4.276 4.276-4.276 4.276 1.914 4.276 4.276z"/><path d="m186 256c-.684 0-1.367-.174-1.98-.523l-52-29.596c-1.246-.711-2.02-2.039-2.02-3.477v-56.809c0-1.438.773-2.766 2.02-3.477l52-29.596c1.227-.699 2.734-.699 3.961 0l52 29.596c1.246.711 2.02 2.039 2.02 3.477v56.809c0 1.438-.773 2.766-2.02 3.477l-52 29.596c-.614.349-1.297.523-1.981.523zm-48-35.922 48 27.32 48-27.32v-52.156l-48-27.32-48 27.32z"/></g><g><circle cx="186" cy="252" fill="#f4aeab" r="12"/><path d="m186 268c-8.824 0-16-7.178-16-16s7.176-16 16-16 16 7.178 16 16-7.176 16-16 16zm0-24c-4.41 0-8 3.588-8 8s3.59 8 8 8 8-3.588 8-8-3.59-8-8-8z" fill="#4c241d"/></g><g><circle cx="238" cy="220" fill="#a9ba5a" r="12"/><path d="m238 236c-8.824 0-16-7.178-16-16s7.176-16 16-16 16 7.178 16 16-7.176 16-16 16zm0-24c-4.41 0-8 3.588-8 8s3.59 8 8 8 8-3.588 8-8-3.59-8-8-8z" fill="#4c241d"/></g><g><circle cx="238" cy="164" fill="#f96e43" r="12"/><path d="m238 180c-8.824 0-16-7.178-16-16s7.176-16 16-16 16 7.178 16 16-7.176 16-16 16zm0-24c-4.41 0-8 3.588-8 8s3.59 8 8 8 8-3.588 8-8-3.59-8-8-8z" fill="#4c241d"/></g><g><circle cx="134" cy="164" fill="#ffce56" r="12"/><path d="m134 180c-8.824 0-16-7.178-16-16s7.176-16 16-16 16 7.178 16 16-7.176 16-16 16zm0-24c-4.41 0-8 3.588-8 8s3.59 8 8 8 8-3.588 8-8-3.59-8-8-8z" fill="#4c241d"/></g><g><circle cx="134" cy="220" fill="#fc8c29" r="12"/><path d="m134 236c-8.824 0-16-7.178-16-16s7.176-16 16-16 16 7.178 16 16-7.176 16-16 16zm0-24c-4.41 0-8 3.588-8 8s3.59 8 8 8 8-3.588 8-8-3.59-8-8-8z" fill="#4c241d"/></g><path d="m123.602 162.084c-.672 0-1.352-.168-1.977-.523l-41.605-23.68c-1.246-.711-2.02-2.039-2.02-3.477v-56.808c0-1.438.773-2.766 2.02-3.477l52-29.596c1.227-.699 2.734-.699 3.961 0l52 29.596c1.246.711 2.02 2.039 2.02 3.477v42.404c0 2.209-1.789 4-4 4s-4-1.791-4-4v-40.078l-48-27.32-48 27.32v52.156l39.586 22.529c1.918 1.094 2.59 3.535 1.496 5.455-.739 1.295-2.091 2.022-3.481 2.022z" fill="#4c241d"/><g><circle cx="134" cy="48" fill="#bd53b5" r="12"/><path d="m134 64c-8.824 0-16-7.178-16-16s7.176-16 16-16 16 7.178 16 16-7.176 16-16 16zm0-24c-4.41 0-8 3.588-8 8s3.59 8 8 8 8-3.588 8-8-3.59-8-8-8z" fill="#4c241d"/></g><g><circle cx="186" cy="132" fill="#a9ba5a" r="12"/><path d="m186 148c-8.824 0-16-7.178-16-16s7.176-16 16-16 16 7.178 16 16-7.176 16-16 16zm0-24c-4.41 0-8 3.588-8 8s3.59 8 8 8 8-3.588 8-8-3.59-8-8-8z" fill="#4c241d"/></g><g><circle cx="186" cy="76" fill="#f96e43" r="12"/><path d="m186 92c-8.824 0-16-7.178-16-16s7.176-16 16-16 16 7.178 16 16-7.176 16-16 16zm0-24c-4.41 0-8 3.588-8 8s3.59 8 8 8 8-3.588 8-8-3.59-8-8-8z" fill="#4c241d"/></g><g><circle cx="82" cy="76" fill="#ffce56" r="12"/><path d="m82 92c-8.824 0-16-7.178-16-16s7.176-16 16-16 16 7.178 16 16-7.176 16-16 16zm0-24c-4.41 0-8 3.588-8 8s3.59 8 8 8 8-3.588 8-8-3.59-8-8-8z" fill="#4c241d"/></g><g><circle cx="82" cy="132" fill="#fc8c29" r="12"/><path d="m82 148c-8.824 0-16-7.178-16-16s7.176-16 16-16 16 7.178 16 16-7.176 16-16 16zm0-24c-4.41 0-8 3.588-8 8s3.59 8 8 8 8-3.588 8-8-3.59-8-8-8z" fill="#4c241d"/></g></g></svg>