<svg id="pollution" enable-background="new 0 0 300 300" height="512" viewBox="0 0 300 300" width="512" xmlns="http://www.w3.org/2000/svg"><g><circle cx="153.478" cy="159.217" fill="#e4eac7" r="92"/><g fill="#4c241d"><path d="m113.478 203.217c-6.617 0-12-5.383-12-12s5.383-12 12-12 12 5.383 12 12-5.383 12-12 12zm0-16c-2.205 0-4 1.795-4 4s1.795 4 4 4 4-1.795 4-4-1.795-4-4-4z"/><path d="m77.478 227.217c-1.023 0-2.047-.391-2.828-1.172l-12-12c-1.562-1.562-1.562-4.094 0-5.656s4.094-1.562 5.656 0l12 12c1.562 1.562 1.562 4.094 0 5.656-.782.781-1.805 1.172-2.828 1.172z"/><path d="m65.478 227.217c-1.023 0-2.047-.391-2.828-1.172-1.562-1.562-1.562-4.094 0-5.656l12-12c1.562-1.562 4.094-1.562 5.656 0s1.562 4.094 0 5.656l-12 12c-.782.781-1.805 1.172-2.828 1.172z"/><circle cx="73.478" cy="179.217" r="4"/><path d="m115.288 91.217h-3.621c-5.619 0-10.189-4.57-10.189-10.189v-11.622c0-5.619 4.57-10.189 10.189-10.189h3.621c5.619 0 10.189 4.57 10.189 10.189v11.621c.001 5.619-4.57 10.19-10.189 10.19zm-3.621-24c-1.207 0-2.189.982-2.189 2.189v11.621c0 1.207.982 2.189 2.189 2.189h3.621c1.207 0 2.189-.982 2.189-2.189v-11.621c0-1.207-.982-2.189-2.189-2.189z"/><path d="m93.478 91.217h-5.361c-5.865 0-10.639-4.773-10.639-10.639v-10.723c0-5.865 4.773-10.639 10.639-10.639h5.361c2.209 0 4 1.791 4 4s-1.791 4-4 4h-5.361c-1.455 0-2.639 1.184-2.639 2.639v10.723c0 1.455 1.184 2.639 2.639 2.639h5.361c2.209 0 4 1.791 4 4s-1.791 4-4 4z"/><path d="m149.478 91.217h-16c-2.209 0-4-1.791-4-4v-6.889c0-5.023 4.088-9.111 9.111-9.111h5.777c.613 0 1.111-.498 1.111-1.111v-1.777c0-.613-.498-1.111-1.111-1.111h-10.889c-2.209 0-4-1.791-4-4s1.791-4 4-4h10.889c5.023 0 9.111 4.088 9.111 9.111v1.777c0 5.023-4.088 9.111-9.111 9.111h-5.777c-.613 0-1.111.498-1.111 1.111v2.889h12c2.209 0 4 1.791 4 4s-1.791 4-4 4z"/></g><g><ellipse cx="206.522" cy="200.219" fill="#c1dbdc" rx="60" ry="60.565"/><path d="m206.522 264.783c-35.289 0-64-28.963-64-64.564s28.711-64.564 64-64.564 64 28.963 64 64.564-28.71 64.564-64 64.564zm0-121.129c-30.879 0-56 25.375-56 56.564s25.121 56.564 56 56.564 56-25.375 56-56.564-25.121-56.564-56-56.564z" fill="#4c241d"/></g><g><path d="m206.522 260.784c4.933 0 9.699-.667 14.286-1.8-2.836-8.076-10.457-13.886-19.506-13.886-7.888 0-14.651 4.44-18.142 10.924 7.181 3.065 15.075 4.762 23.362 4.762z" fill="#fff"/><path d="m206.522 264.783c-8.646 0-17.035-1.711-24.932-5.084-1.033-.441-1.834-1.295-2.205-2.355s-.279-2.229.254-3.219c4.324-8.035 12.625-13.027 21.662-13.027 10.447 0 19.803 6.656 23.279 16.562.375 1.062.281 2.234-.254 3.227-.537.99-1.467 1.711-2.561 1.98-5.143 1.272-10.272 1.916-15.243 1.916zm-17.052-10.666c8.035 2.596 16.51 3.396 25.387 1.996-3.082-4.322-8.1-7.016-13.555-7.016-4.506.001-8.746 1.852-11.832 5.02z" fill="#4c241d"/></g><g><path d="m266.356 196.901c-.963-17.88-9.56-33.681-22.613-44.129-5.087 2.612-19.109 10.42-19.109 17.139h-.021c-4.367 0-7.908 3.541-7.908 7.909h-14c-3.313 0-6 2.686-6 6s2.687 6 6 6h16c3.313 0 6 2.686 6 6s-2.687 6-6 6h-12c-3.313 0-6 2.686-6 6s2.687 6 6 6h6v10c0 5.523 4.477 10 10 10s10-4.477 10-10v-18c4.418 0 8-3.582 8-8h22.277c.614-.001 1.832-.349 3.374-.919z" fill="#a9ba5a"/><path d="m222.704 237.818c-7.719 0-14-6.281-14-14v-6h-2c-5.514 0-10-4.486-10-10s4.486-10 10-10h12c1.104 0 2-.896 2-2s-.896-2-2-2h-16c-5.514 0-10-4.486-10-10s4.486-10 10-10h10.691c1.285-3.596 4.256-6.398 7.953-7.453 2.664-6.732 12.293-12.906 20.568-17.152 1.404-.721 3.096-.551 4.326.436 14.328 11.469 23.115 28.613 24.107 47.037.094 1.75-.963 3.359-2.607 3.967-2.779 1.027-3.967 1.166-4.762 1.166h-18.963c-1.207 3.404-3.91 6.107-7.314 7.314v14.686c.001 7.718-6.28 13.999-13.999 13.999zm-16-32c-1.104 0-2 .896-2 2s.896 2 2 2h6c2.209 0 4 1.791 4 4v10c0 3.309 2.691 6 6 6s6-2.691 6-6v-18c0-2.209 1.791-4 4-4 2.205 0 4-1.795 4-4 0-2.209 1.791-4 4-4h21.385c-1.576-14.021-8.305-26.973-18.852-36.252-9.504 5.207-14.604 10.148-14.604 12.344 0 2.209-1.791 4-4 4-2.176 0-3.93 1.754-3.93 3.908 0 2.209-1.791 4-4 4h-14c-1.104 0-2 .896-2 2s.896 2 2 2h16c5.514 0 10 4.486 10 10s-4.486 10-10 10z" fill="#4c241d"/></g><g><path d="m161.54 201.819h-14.938c.322 12.425 4.332 23.902 10.993 33.378l9.437-12.575c1.08-1.439 1.672-3.257 1.672-5.135v-7.672c0-4.416-3.208-7.996-7.164-7.996z" fill="#a9ba5a"/><path d="m157.595 239.197c-.021 0-.041 0-.062 0-1.281-.02-2.475-.652-3.211-1.699-7.332-10.436-11.385-22.736-11.717-35.576-.029-1.078.381-2.123 1.133-2.895.754-.773 1.787-1.209 2.865-1.209h14.938c6.156 0 11.164 5.381 11.164 11.996v7.674c0 2.734-.879 5.41-2.473 7.535l-9.438 12.574c-.756 1.008-1.941 1.6-3.199 1.6zm-6.742-33.379c.77 7.898 3.156 15.484 7.023 22.34l5.957-7.936c.562-.75.871-1.721.871-2.734v-7.674c0-2.166-1.449-3.996-3.164-3.996z" fill="#4c241d"/></g><path d="m141.478 155.217h-8c-8.822 0-16-7.178-16-16v-4c0-4.412-3.588-8-8-8h-44c-8.822 0-16-7.178-16-16v-56c0-4.412-3.588-8-8-8h-8c-2.209 0-4-1.791-4-4s1.791-4 4-4h8c8.822 0 16 7.178 16 16v56c0 4.412 3.588 8 8 8h44c8.822 0 16 7.178 16 16v4c0 4.412 3.588 8 8 8h8c2.209 0 4 1.791 4 4s-1.791 4-4 4z" fill="#4c241d"/><path d="m153.478 139.217c-8.822 0-16-7.178-16-16v-6.41c0-5.287-4.303-9.59-9.59-9.59h-54.41c-2.209 0-4-1.791-4-4s1.791-4 4-4h54.41c9.699 0 17.59 7.891 17.59 17.59v6.41c0 4.412 3.588 8 8 8 2.209 0 4 1.791 4 4s-1.791 4-4 4z" fill="#4c241d"/><path d="m189.478 123.217c-2.209 0-4-1.791-4-4v-4c0-8.822 7.178-16 16-16h12c4.412 0 8-3.588 8-8v-40c0-4.412-3.588-8-8-8h-80c-2.209 0-4-1.791-4-4s1.791-4 4-4h80c8.822 0 16 7.178 16 16v40c0 8.822-7.178 16-16 16h-12c-4.412 0-8 3.588-8 8v4c0 2.209-1.791 4-4 4z" fill="#4c241d"/><path d="m169.478 99.217c-2.209 0-4-1.791-4-4v-36c0-2.209 1.791-4 4-4s4 1.791 4 4v36c0 2.209-1.791 4-4 4z" fill="#4c241d"/><path d="m169.478 127.217c-2.209 0-4-1.791-4-4v-12c0-2.209 1.791-4 4-4s4 1.791 4 4v12c0 2.209-1.791 4-4 4z" fill="#4c241d"/><path d="m189.478 95.217c-2.209 0-4-1.791-4-4v-5.957c0-5.537 4.506-10.043 10.043-10.043h7.914c1.127 0 2.043-.916 2.043-2.043v-11.914c0-1.127-.916-2.043-2.043-2.043h-17.957c-2.209 0-4-1.791-4-4s1.791-4 4-4h17.957c5.537 0 10.043 4.506 10.043 10.043v11.914c0 5.537-4.506 10.043-10.043 10.043h-7.914c-1.127 0-2.043.916-2.043 2.043v5.957c0 2.209-1.791 4-4 4z" fill="#4c241d"/><g><path d="m185.456 163.277c0-8.837-16-28-16-28s-16 19.163-16 28 7.163 16 16 16 16-7.163 16-16z" fill="#bf7e68"/><path d="m169.456 183.277c-11.027 0-20-8.973-20-20 0-9.791 14.102-27.178 16.93-30.564 1.52-1.82 4.621-1.82 6.141 0 2.828 3.387 16.93 20.773 16.93 30.564-.001 11.028-8.974 20-20.001 20zm0-41.588c-5.721 7.471-12 17.295-12 21.588 0 6.617 5.383 12 12 12s12-5.383 12-12c0-4.293-6.279-14.117-12-21.588z" fill="#4c241d"/></g><path d="m117.478 43.217h-16c-2.209 0-4-1.791-4-4s1.791-4 4-4h16c2.209 0 4 1.791 4 4s-1.791 4-4 4z" fill="#4c241d"/></g></svg>