<svg id="Layer_1" enable-background="new 0 0 465.824 465.824" height="512" viewBox="0 0 465.824 465.824" width="512" xmlns="http://www.w3.org/2000/svg"><g><g><path d="m7.5 80.986v310.207c0 19.503 15.81 35.313 35.313 35.313h17.656c19.503 0 35.313-15.81 35.313-35.313v-310.207z" fill="#dfba7f"/><path d="m60.469 426.506c19.503 0 35.313-15.81 35.313-35.313v-331.132h-44.141v366.445z" fill="#ffe1ba"/><path d="m95.782 39.318v351.875c0 19.503-15.81 35.313-35.313 35.313h362.543c19.503 0 35.313-15.81 35.313-35.313v-351.875z" fill="#fef2e2"/><path d="m438.324 39.318v351.875c0 19.503-15.81 35.313-35.313 35.313h20c19.502 0 35.313-15.81 35.313-35.313v-351.875z" fill="#ffe1ba"/><path d="m224.032 232.124h119.938v119.938h-119.938z" fill="#dfba7f"/><path d="m323.97 232.124h20v119.938h-20z" fill="#b89458"/></g><g><path d="m88.281 31.818v20.743h-44.14v20.925h-44.141v317.707c0 23.606 19.206 42.813 42.813 42.813h287.157v-15h-236.978c6.412-7.487 10.289-17.205 10.289-27.813v-344.375h347.543v344.375c0 15.336-12.477 27.813-27.813 27.813h-79.041v15h79.042c23.606 0 42.813-19.206 42.813-42.813v-359.375zm-27.812 387.188h-1.328v-238.278h-15v238.278h-1.328c-15.336 0-27.813-12.477-27.813-27.813v-302.707h29.141v76.575h15v-97.5h29.141v323.632c-.001 15.336-12.477 27.813-27.813 27.813z"/><path d="m124.303 179.562h309.667v15h-309.667z"/><path d="m351.47 224.624h-134.938v134.938h134.938zm-15 119.938h-104.938v-104.938h104.938z"/><path d="m124.303 224.624h65.667v15h-65.667z"/><path d="m124.303 253.246h65.667v15h-65.667z"/><path d="m124.303 284.499h65.667v15h-65.667z"/><path d="m124.303 315.751h39.792v15h-39.792z"/><path d="m124.303 344.562h65.667v15h-65.667z"/><path d="m368.303 224.624h65.667v15h-65.667z"/><path d="m368.303 253.246h65.667v15h-65.667z"/><path d="m368.303 284.499h65.667v15h-65.667z"/><path d="m368.303 315.751h39.792v15h-39.792z"/><path d="m368.303 344.562h65.667v15h-65.667z"/><path d="m329.97 374.499h104v15h-104z"/><path d="m124.303 374.499h114.283v15h-114.283z"/><path d="m170.676 121.554-32.656-47.042-14.349-.005v75.218h15v-47.971l32.657 47.043h14.348v-74.4h-15z"/><path d="m246.086 89.673v-15h-42.828v74.776h42.828v-15h-27.828v-14.887h25.776v-15h-25.776v-14.889z"/><path d="m404.259 134.725c-6.994 0-13.695-2.522-17.927-6.749l-10.6 10.613c7.085 7.077 17.482 11.136 28.526 11.136 13.743 0 25.485-8.489 27.315-19.747 2.063-12.701-8.541-21.012-19.153-24.555-8.371-2.795-16.151-5.843-18.345-6.713-1.34-.933-1.969-2.203-1.778-3.618.232-1.731 1.858-3.957 5.724-5.011 10.22-2.785 19.497 3.949 19.589 4.018l4.502-5.999 4.541-5.969c-.609-.463-15.108-11.291-32.577-6.521-9.154 2.496-15.532 9.196-16.646 17.487-1.015 7.561 2.593 14.758 9.414 18.782l.483.285.52.21c.384.155 9.526 3.839 19.823 7.277 6.076 2.028 9.562 5.063 9.098 7.92-.487 2.999-5.106 7.154-12.509 7.154z"/><path d="m308.664 103.303 14.763 46.34 14.351-.089 15.935-72.471-14.65-3.221-9.815 44.637-13.63-42.783-13.882-.015-13.669 42.778-9.773-44.721-14.654 3.203 15.885 72.685 14.36-.089z"/></g></g></svg>